<svg width="29" height="29" viewBox="0 0 29 29" fill="none" xmlns="http://www.w3.org/2000/svg">
<path d="M14.4178 14.5C14.4178 11.8306 16.5575 9.66663 19.1971 9.66663C21.8366 9.66663 23.9764 11.8306 23.9764 14.5C23.9764 17.1694 21.8366 19.3333 19.1971 19.3333C16.5575 19.3333 14.4178 17.1694 14.4178 14.5Z" fill="#1ABCFE"/>
<path d="M4.85913 24.1666C4.85913 21.4973 6.99891 19.3333 9.63846 19.3333H14.4178V24.1666C14.4178 26.836 12.278 29 9.63846 29C6.99891 29 4.85913 26.836 4.85913 24.1666Z" fill="#0ACF83"/>
<path d="M14.4178 0V9.66664H19.1971C21.8367 9.66664 23.9764 7.5027 23.9764 4.83333C23.9764 2.16396 21.8367 0 19.1971 0H14.4178Z" fill="#FF7262"/>
<path d="M4.85913 4.83333C4.85913 7.50271 6.99891 9.66664 9.63846 9.66664H14.4178V0H9.63846C6.99891 0 4.85913 2.16396 4.85913 4.83333Z" fill="#F24E1E"/>
<path d="M4.85913 14.5C4.85913 17.1694 6.99891 19.3333 9.63846 19.3333H14.4178V9.66663H9.63846C6.99891 9.66663 4.85913 11.8306 4.85913 14.5Z" fill="#A259FF"/>
</svg>
