<svg width="30" height="29" viewBox="0 0 30 29" fill="none" xmlns="http://www.w3.org/2000/svg">
<path d="M0.000732422 -6.10352e-05H29.4922V28.9999H0.000732422V-6.10352e-05Z" fill="url(#paint0_linear_1_421)"/>
<path d="M2.34619 2.30609H27.147V26.6938H2.34619V2.30609Z" fill="url(#paint1_linear_1_421)"/>
<path d="M7.12766 8.17341C7.12766 8.17341 8.99231 8.12436 10.5272 8.12436C12.0783 8.12436 13.1842 8.48927 13.9267 9.13051C14.6364 9.73646 15.1149 10.7695 15.1149 11.9454C15.1149 13.1213 14.7518 14.0835 14.0916 14.76C13.2335 15.6331 12.2335 16.1499 10.5272 16.2213C10.0559 16.2411 9.6196 16.2458 9.6196 16.2458V20.0683H7.12756L7.12766 8.17341ZM9.6195 14.128C9.89023 14.1544 10.0599 14.1417 10.4612 14.1369C11.7979 14.1209 12.6228 13.308 12.6228 12.0787C12.6228 10.9743 11.9426 10.0676 10.6594 10.0206C10.1479 10.0019 9.6195 10.0206 9.6195 10.0206V14.128Z" fill="url(#paint2_linear_1_421)"/>
<path d="M16.066 17.4054C16.5683 17.7136 17.7534 18.1751 18.5613 18.1751C19.3867 18.1751 19.7275 17.8842 19.7275 17.4307C19.7275 16.9767 19.4583 16.4997 18.4353 16.1548C16.6226 15.5376 15.9226 14.7987 15.9408 13.7645C15.9408 12.0942 17.3404 10.8418 19.512 10.8418C20.535 10.8418 21.3522 11.1763 21.8901 11.4484V13.453C21.4949 13.235 20.3555 12.7482 19.6019 12.7482C18.9374 12.7482 18.5608 13.0205 18.5608 13.4739C18.5608 13.8915 18.902 14.1093 19.9788 14.4907C21.6475 15.0715 22.3475 15.9244 22.3652 17.2314C22.3652 18.8834 21.0918 20.197 18.5608 20.1173C17.6922 20.09 16.7299 19.7466 16.0658 19.3841L16.066 17.4054Z" fill="url(#paint3_linear_1_421)"/>
<defs>
<linearGradient id="paint0_linear_1_421" x1="7.16766" y1="-1.51455" x2="18.4727" y2="22.3737" gradientUnits="userSpaceOnUse">
<stop stop-color="#A0CBFF"/>
<stop offset="0.394" stop-color="#A0CBFE"/>
<stop offset="0.583" stop-color="#8EC2FC"/>
<stop offset="0.784" stop-color="#83BCFB"/>
<stop offset="1" stop-color="#7FBAFB"/>
</linearGradient>
<linearGradient id="paint1_linear_1_421" x1="11.1805" y1="2.64977" x2="17.5703" y2="23.8839" gradientUnits="userSpaceOnUse">
<stop stop-color="#090058"/>
<stop offset="1" stop-color="#070033"/>
</linearGradient>
<linearGradient id="paint2_linear_1_421" x1="3.6515" y1="-0.243461" x2="14.9565" y2="23.6445" gradientUnits="userSpaceOnUse">
<stop stop-color="#A0CBFF"/>
<stop offset="0.394" stop-color="#A0CBFE"/>
<stop offset="0.583" stop-color="#8EC2FC"/>
<stop offset="0.784" stop-color="#83BCFB"/>
<stop offset="1" stop-color="#7FBAFB"/>
</linearGradient>
<linearGradient id="paint3_linear_1_421" x1="10.0909" y1="-3.3626" x2="21.4408" y2="20.62" gradientUnits="userSpaceOnUse">
<stop stop-color="#A0CBFF"/>
<stop offset="0.394" stop-color="#A0CBFE"/>
<stop offset="0.583" stop-color="#8EC2FC"/>
<stop offset="0.784" stop-color="#83BCFB"/>
<stop offset="1" stop-color="#7FBAFB"/>
</linearGradient>
</defs>
</svg>
